<svg xmlns="http://www.w3.org/2000/svg" width="1440" height="900"><path d="M799,670L693,983L819,932Z" fill="#757575" stroke="#757575" stroke-width="1.51"/><path d="M799,670L466,709L693,983Z" fill="#818181" stroke="#818181" stroke-width="1.51"/><path d="M466,709L218,792L693,983Z" fill="#898989" stroke="#898989" stroke-width="1.51"/><path d="M693,983L873,1260L819,932Z" fill="#616161" stroke="#616161" stroke-width="1.51"/><path d="M819,932L1251,737L799,670Z" fill="#717171" stroke="#717171" stroke-width="1.51"/><path d="M491,1297L873,1260L693,983Z" fill="#5b5b5b" stroke="#5b5b5b" stroke-width="1.51"/><path d="M218,792L491,1297L693,983Z" fill="#777777" stroke="#777777" stroke-width="1.51"/><path d="M799,670L499,304L466,709Z" fill="#959595" stroke="#959595" stroke-width="1.51"/><path d="M466,709L156,656L218,792Z" fill="#9a9a9a" stroke="#9a9a9a" stroke-width="1.51"/><path d="M1291,1003L1251,737L819,932Z" fill="#606060" stroke="#606060" stroke-width="1.51"/><path d="M799,670L744,165L499,304Z" fill="#9e9e9e" stroke="#9e9e9e" stroke-width="1.51"/><path d="M499,304L156,656L466,709Z" fill="#a3a3a3" stroke="#a3a3a3" stroke-width="1.51"/><path d="M1251,737L1135,374L799,670Z" fill="#787878" stroke="#787878" stroke-width="1.51"/><path d="M873,1260L1291,1003L819,932Z" fill="#565656" stroke="#565656" stroke-width="1.51"/><path d="M1135,374L744,165L799,670Z" fill="#909090" stroke="#909090" stroke-width="1.51"/><path d="M156,656L48,828L218,792Z" fill="#9d9d9d" stroke="#9d9d9d" stroke-width="1.51"/><path d="M218,792L199,1360L491,1297Z" fill="#717171" stroke="#717171" stroke-width="1.51"/><path d="M1305,1463L1246,1228L873,1260Z" fill="#3a3a3a" stroke="#3a3a3a" stroke-width="1.51"/><path d="M873,1260L1246,1228L1291,1003Z" fill="#454545" stroke="#454545" stroke-width="1.51"/><path d="M1615,1202L1392,922L1291,1003Z" fill="#404040" stroke="#404040" stroke-width="1.51"/><path d="M1291,1003L1392,922L1251,737Z" fill="#565656" stroke="#565656" stroke-width="1.51"/><path d="M1251,737L1627,550L1135,374Z" fill="#6d6d6d" stroke="#6d6d6d" stroke-width="1.51"/><path d="M499,304L241,239L156,656Z" fill="#b2b2b2" stroke="#b2b2b2" stroke-width="1.51"/><path d="M156,656L-97,661L48,828Z" fill="#a4a4a4" stroke="#a4a4a4" stroke-width="1.51"/><path d="M510,26L241,239L499,304Z" fill="#bdbdbd" stroke="#bdbdbd" stroke-width="1.51"/><path d="M491,1297L780,1577L873,1260Z" fill="#4b4b4b" stroke="#4b4b4b" stroke-width="1.51"/><path d="M48,828L199,1360L218,792Z" fill="#898989" stroke="#898989" stroke-width="1.51"/><path d="M571,1651L780,1577L491,1297Z" fill="#4f4f4f" stroke="#4f4f4f" stroke-width="1.51"/><path d="M790,-150L510,26L744,165Z" fill="#b7b7b7" stroke="#b7b7b7" stroke-width="1.51"/><path d="M744,165L510,26L499,304Z" fill="#b4b4b4" stroke="#b4b4b4" stroke-width="1.51"/><path d="M-30,276L-97,661L156,656Z" fill="#b4b4b4" stroke="#b4b4b4" stroke-width="1.51"/><path d="M48,828L-199,1260L199,1360Z" fill="#7c7c7c" stroke="#7c7c7c" stroke-width="1.51"/><path d="M300,1566L571,1651L491,1297Z" fill="#585858" stroke="#585858" stroke-width="1.51"/><path d="M199,1360L300,1566L491,1297Z" fill="#5d5d5d" stroke="#5d5d5d" stroke-width="1.51"/><path d="M780,1577L1305,1463L873,1260Z" fill="#3c3c3c" stroke="#3c3c3c" stroke-width="1.51"/><path d="M1246,1228L1615,1202L1291,1003Z" fill="#3a3a3a" stroke="#3a3a3a" stroke-width="1.51"/><path d="M1955,1686L1305,1463L780,1577Z" fill="#2b2b2b" stroke="#2b2b2b" stroke-width="1.51"/><path d="M241,239L-30,276L156,656Z" fill="#bbbbbb" stroke="#bbbbbb" stroke-width="1.51"/><path d="M510,26L359,-26L241,239Z" fill="#c6c6c6" stroke="#c6c6c6" stroke-width="1.51"/><path d="M359,-26L-30,276L241,239Z" fill="#c9c9c9" stroke="#c9c9c9" stroke-width="1.51"/><path d="M1305,1463L1394,1439L1246,1228Z" fill="#2e2e2e" stroke="#2e2e2e" stroke-width="1.51"/><path d="M1136,-124L790,-150L744,165Z" fill="#adadad" stroke="#adadad" stroke-width="1.51"/><path d="M510,26L517,-231L359,-26Z" fill="#cacaca" stroke="#cacaca" stroke-width="1.51"/><path d="M1135,374L1136,-124L744,165Z" fill="#9d9d9d" stroke="#9d9d9d" stroke-width="1.51"/><path d="M1392,922L1627,550L1251,737Z" fill="#5a5a5a" stroke="#5a5a5a" stroke-width="1.51"/><path d="M1714,863L1627,550L1392,922Z" fill="#4b4b4b" stroke="#4b4b4b" stroke-width="1.51"/><path d="M1627,550L1450,192L1135,374Z" fill="#757575" stroke="#757575" stroke-width="1.51"/><path d="M1394,1439L1615,1202L1246,1228Z" fill="#2d2d2d" stroke="#2d2d2d" stroke-width="1.51"/><path d="M-352,1209L-199,1260L48,828Z" fill="#888888" stroke="#888888" stroke-width="1.51"/><path d="M199,1360L-66,1482L300,1566Z" fill="#646464" stroke="#646464" stroke-width="1.51"/><path d="M-199,1260L-66,1482L199,1360Z" fill="#6c6c6c" stroke="#6c6c6c" stroke-width="1.51"/><path d="M300,1566L-481,1514L571,1651Z" fill="#656565" stroke="#656565" stroke-width="1.51"/><path d="M1615,1202L1714,863L1392,922Z" fill="#3b3b3b" stroke="#3b3b3b" stroke-width="1.51"/><path d="M1450,192L1136,-124L1135,374Z" fill="#909090" stroke="#909090" stroke-width="1.51"/><path d="M-339,40L-287,370L-30,276Z" fill="#d4d4d4" stroke="#d4d4d4" stroke-width="1.51"/><path d="M790,-150L517,-231L510,26Z" fill="#c3c3c3" stroke="#c3c3c3" stroke-width="1.51"/><path d="M964,-373L517,-231L790,-150Z" fill="#bfbfbf" stroke="#bfbfbf" stroke-width="1.51"/><path d="M-429,799L-352,1209L48,828Z" fill="#9b9b9b" stroke="#9b9b9b" stroke-width="1.51"/><path d="M-30,276L-287,370L-97,661Z" fill="#c0c0c0" stroke="#c0c0c0" stroke-width="1.51"/><path d="M-339,40L-30,276L-191,-158Z" fill="#dedede" stroke="#dedede" stroke-width="1.51"/><path d="M1268,-313L964,-373L1136,-124Z" fill="#ababab" stroke="#ababab" stroke-width="1.51"/><path d="M1627,550L1718,424L1450,192Z" fill="#656565" stroke="#656565" stroke-width="1.51"/><path d="M1911,496L1718,424L1627,550Z" fill="#535353" stroke="#535353" stroke-width="1.51"/><path d="M-199,1260L-481,1514L-66,1482Z" fill="#717171" stroke="#717171" stroke-width="1.51"/><path d="M-429,799L48,828L-97,661Z" fill="#a7a7a7" stroke="#a7a7a7" stroke-width="1.51"/><path d="M-493,712L-429,799L-97,661Z" fill="#afafaf" stroke="#afafaf" stroke-width="1.51"/><path d="M-287,370L-493,712L-97,661Z" fill="#b9b9b9" stroke="#b9b9b9" stroke-width="1.51"/><path d="M-429,799L-493,712L-352,1209Z" fill="#a3a3a3" stroke="#a3a3a3" stroke-width="1.51"/><path d="M1136,-124L964,-373L790,-150Z" fill="#b1b1b1" stroke="#b1b1b1" stroke-width="1.51"/><path d="M1535,-127L1136,-124L1450,192Z" fill="#909090" stroke="#909090" stroke-width="1.51"/><path d="M1714,863L1911,496L1627,550Z" fill="#494949" stroke="#494949" stroke-width="1.51"/><path d="M1615,1202L1854,1274L1714,863Z" fill="#272727" stroke="#272727" stroke-width="1.51"/><path d="M1394,1439L1854,1274L1615,1202Z" fill="#1f1f1f" stroke="#1f1f1f" stroke-width="1.51"/><path d="M1957,-107L1535,-127L1450,192Z" fill="#7a7a7a" stroke="#7a7a7a" stroke-width="1.51"/><path d="M2221,716L1911,496L1714,863Z" fill="#3b3b3b" stroke="#3b3b3b" stroke-width="1.51"/><path d="M1957,-107L1450,192L1718,424Z" fill="#6c6c6c" stroke="#6c6c6c" stroke-width="1.51"/><path d="M1535,-127L1268,-313L1136,-124Z" fill="#9c9c9c" stroke="#9c9c9c" stroke-width="1.51"/><path d="M-287,370L-339,40L-493,712Z" fill="#cccccc" stroke="#cccccc" stroke-width="1.51"/><path d="M-191,-158L-30,276L359,-26Z" fill="#d7d7d7" stroke="#d7d7d7" stroke-width="1.51"/><path d="M-191,-158L359,-26L53,-401Z" fill="#e1e1e1" stroke="#e1e1e1" stroke-width="1.51"/><path d="M129,-425L359,-26L517,-231Z" fill="#d8d8d8" stroke="#d8d8d8" stroke-width="1.51"/><path d="M964,-373L129,-425L517,-231Z" fill="#d0d0d0" stroke="#d0d0d0" stroke-width="1.51"/><path d="M129,-425L53,-401L359,-26Z" fill="#e1e1e1" stroke="#e1e1e1" stroke-width="1.51"/><path d="M-352,1209L-481,1514L-199,1260Z" fill="#787878" stroke="#787878" stroke-width="1.51"/><path d="M-66,1482L-481,1514L300,1566Z" fill="#6c6c6c" stroke="#6c6c6c" stroke-width="1.51"/><path d="M-493,712L-481,1514L-352,1209Z" fill="#898989" stroke="#898989" stroke-width="1.51"/><path d="M1854,1274L2104,1181L1714,863Z" fill="#1f1f1f" stroke="#1f1f1f" stroke-width="1.51"/><path d="M1854,1274L2025,1447L2104,1181Z" fill="#0b0b0b" stroke="#0b0b0b" stroke-width="1.51"/><path d="M1955,1686L2025,1447L1854,1274Z" fill="#030403" stroke="#030403" stroke-width="1.51"/><path d="M1955,1686L1854,1274L1394,1439Z" fill="#131313" stroke="#131313" stroke-width="1.51"/><path d="M1955,1686L1394,1439L1305,1463Z" fill="#1e1e1e" stroke="#1e1e1e" stroke-width="1.51"/><path d="M2025,1447L2162,1033L2104,1181Z" fill="#121212" stroke="#121212" stroke-width="1.51"/><path d="M2104,1181L2162,1033L1714,863Z" fill="#222222" stroke="#222222" stroke-width="1.51"/><path d="M1911,496L2121,376L1718,424Z" fill="#4e4e4e" stroke="#4e4e4e" stroke-width="1.51"/><path d="M2221,716L2121,376L1911,496Z" fill="#444444" stroke="#444444" stroke-width="1.51"/><path d="M1957,-107L1705,-293L1535,-127Z" fill="#7c7c7c" stroke="#7c7c7c" stroke-width="1.51"/><path d="M1535,-127L1603,-434L1268,-313Z" fill="#959595" stroke="#959595" stroke-width="1.51"/><path d="M1268,-313L1603,-434L964,-373Z" fill="#a5a5a5" stroke="#a5a5a5" stroke-width="1.51"/><path d="M2162,1033L2221,716L1714,863Z" fill="#2e2e2e" stroke="#2e2e2e" stroke-width="1.51"/><path d="M571,1651L1955,1686L780,1577Z" fill="#363636" stroke="#363636" stroke-width="1.51"/><path d="M2025,1447L1955,1686L2162,1033Z" fill="#010201" stroke="#010201" stroke-width="1.51"/><path d="M1705,-293L1603,-434L1535,-127Z" fill="#888888" stroke="#888888" stroke-width="1.51"/><path d="M964,-373L1603,-434L129,-425Z" fill="#bcbcbc" stroke="#bcbcbc" stroke-width="1.51"/><path d="M2131,86L1957,-107L1718,424Z" fill="#616161" stroke="#616161" stroke-width="1.51"/><path d="M1705,-293L2161,-319L1603,-434Z" fill="#7c7c7c" stroke="#7c7c7c" stroke-width="1.51"/><path d="M2121,376L2131,86L1718,424Z" fill="#545454" stroke="#545454" stroke-width="1.51"/><path d="M2221,716L2131,86L2121,376Z" fill="#4d4d4d" stroke="#4d4d4d" stroke-width="1.51"/><path d="M129,-425L-487,-379L53,-401Z" fill="#f0f0f0" stroke="#f0f0f0" stroke-width="1.51"/><path d="M53,-401L-487,-379L-191,-158Z" fill="#f0f0f0" stroke="#f0f0f0" stroke-width="1.51"/><path d="M-191,-158L-487,-379L-339,40Z" fill="#eeeeee" stroke="#eeeeee" stroke-width="1.51"/><path d="M-339,40L-487,-379L-493,712Z" fill="#e0e0e0" stroke="#e0e0e0" stroke-width="1.51"/><path d="M2221,716L2161,-319L2131,86Z" fill="#5d5d5d" stroke="#5d5d5d" stroke-width="1.51"/><path d="M2131,86L2161,-319L1957,-107Z" fill="#6a6a6a" stroke="#6a6a6a" stroke-width="1.51"/><path d="M1957,-107L2161,-319L1705,-293Z" fill="#727272" stroke="#727272" stroke-width="1.51"/></svg>