<svg xmlns="http://www.w3.org/2000/svg" width="1440" height="900"><path d="M930,634L944,857L1088,886Z" fill="#a9ded5" stroke="#a9ded5" stroke-width="1.51"/><path d="M1088,886L1217,715L930,634Z" fill="#a6dcd3" stroke="#a6dcd3" stroke-width="1.51"/><path d="M1180,329L957,381L930,634Z" fill="#d8ede9" stroke="#d8ede9" stroke-width="1.51"/><path d="M930,634L656,605L944,857Z" fill="#c9e9e3" stroke="#c9e9e3" stroke-width="1.51"/><path d="M957,381L656,605L930,634Z" fill="#dff0ed" stroke="#dff0ed" stroke-width="1.51"/><path d="M1217,715L1180,329L930,634Z" fill="#bfe5df" stroke="#bfe5df" stroke-width="1.51"/><path d="M1088,886L1473,919L1217,715Z" fill="#7ac8bc" stroke="#7ac8bc" stroke-width="1.51"/><path d="M1217,715L1613,708L1180,329Z" fill="#9dd1ca" stroke="#9dd1ca" stroke-width="1.51"/><path d="M656,605L548,874L944,857Z" fill="#c6e5df" stroke="#c6e5df" stroke-width="1.51"/><path d="M944,857L953,1244L1088,886Z" fill="#84c3bb" stroke="#84c3bb" stroke-width="1.51"/><path d="M1088,886L1395,1239L1473,919Z" fill="#50a99f" stroke="#50a99f" stroke-width="1.51"/><path d="M513,1183L953,1244L944,857Z" fill="#8bb9b4" stroke="#8bb9b4" stroke-width="1.51"/><path d="M953,1244L1114,1268L1088,886Z" fill="#6caca4" stroke="#6caca4" stroke-width="1.51"/><path d="M1473,919L1613,708L1217,715Z" fill="#6dbbb1" stroke="#6dbbb1" stroke-width="1.51"/><path d="M1114,1268L1395,1239L1088,886Z" fill="#56a49a" stroke="#56a49a" stroke-width="1.51"/><path d="M1892,1030L1769,600L1613,708Z" fill="#539a90" stroke="#539a90" stroke-width="1.51"/><path d="M564,90L539,168L957,381Z" fill="#f4e8d0" stroke="#f4e8d0" stroke-width="1.51"/><path d="M1613,708L1420,198L1180,329Z" fill="#a6cdc4" stroke="#a6cdc4" stroke-width="1.51"/><path d="M548,874L513,1183L944,857Z" fill="#a5ccc3" stroke="#a5ccc3" stroke-width="1.51"/><path d="M884,1476L1308,1435L1114,1268Z" fill="#53897e" stroke="#53897e" stroke-width="1.51"/><path d="M1613,708L1769,600L1420,198Z" fill="#8bb8b2" stroke="#8bb8b2" stroke-width="1.51"/><path d="M1892,1030L1613,708L1473,919Z" fill="#43988e" stroke="#43988e" stroke-width="1.51"/><path d="M1826,1184L1892,1030L1473,919Z" fill="#1c7c74" stroke="#1c7c74" stroke-width="1.51"/><path d="M1114,1268L1308,1435L1395,1239Z" fill="#3e877c" stroke="#3e877c" stroke-width="1.51"/><path d="M884,1476L1114,1268L953,1244Z" fill="#66978e" stroke="#66978e" stroke-width="1.51"/><path d="M513,1183L884,1476L953,1244Z" fill="#7b9e97" stroke="#7b9e97" stroke-width="1.51"/><path d="M957,381L539,168L656,605Z" fill="#f6f2ec" stroke="#f6f2ec" stroke-width="1.51"/><path d="M130,669L299,956L548,874Z" fill="#bbd0ae" stroke="#bbd0ae" stroke-width="1.51"/><path d="M548,874L299,956L513,1183Z" fill="#a1c1a9" stroke="#a1c1a9" stroke-width="1.51"/><path d="M1208,-40L957,381L1180,329Z" fill="#ccdec3" stroke="#ccdec3" stroke-width="1.51"/><path d="M130,669L548,874L656,605Z" fill="#d2e2ca" stroke="#d2e2ca" stroke-width="1.51"/><path d="M1420,198L1208,-40L1180,329Z" fill="#b6ccac" stroke="#b6ccac" stroke-width="1.51"/><path d="M746,-124L564,90L957,381Z" fill="#ecdfc0" stroke="#ecdfc0" stroke-width="1.51"/><path d="M1308,1435L1463,1485L1395,1239Z" fill="#2a7267" stroke="#2a7267" stroke-width="1.51"/><path d="M884,1476L1463,1485L1308,1435Z" fill="#428175" stroke="#428175" stroke-width="1.51"/><path d="M1807,252L1409,-46L1420,198Z" fill="#95ad8c" stroke="#95ad8c" stroke-width="1.51"/><path d="M1420,198L1409,-46L1208,-40Z" fill="#a7b68d" stroke="#a7b68d" stroke-width="1.51"/><path d="M1826,1184L1473,919L1395,1239Z" fill="#23827a" stroke="#23827a" stroke-width="1.51"/><path d="M1463,1485L1826,1184L1395,1239Z" fill="#156b62" stroke="#156b62" stroke-width="1.51"/><path d="M1769,600L1807,252L1420,198Z" fill="#8eafa1" stroke="#8eafa1" stroke-width="1.51"/><path d="M2183,609L1807,252L1769,600Z" fill="#799992" stroke="#799992" stroke-width="1.51"/><path d="M328,76L276,251L539,168Z" fill="#edd8a5" stroke="#edd8a5" stroke-width="1.51"/><path d="M539,168L276,251L656,605Z" fill="#f6ebd0" stroke="#f6ebd0" stroke-width="1.51"/><path d="M564,90L328,76L539,168Z" fill="#edd9a8" stroke="#edd9a8" stroke-width="1.51"/><path d="M1208,-40L746,-124L957,381Z" fill="#d8d6b1" stroke="#d8d6b1" stroke-width="1.51"/><path d="M886,-327L746,-124L1208,-40Z" fill="#c9af85" stroke="#c9af85" stroke-width="1.51"/><path d="M276,251L130,669L656,605Z" fill="#ebe4ca" stroke="#ebe4ca" stroke-width="1.51"/><path d="M299,956L315,1322L513,1183Z" fill="#8ea68b" stroke="#8ea68b" stroke-width="1.51"/><path d="M513,1183L467,1513L884,1476Z" fill="#7c9384" stroke="#7c9384" stroke-width="1.51"/><path d="M-45,1203L315,1322L299,956Z" fill="#879871" stroke="#879871" stroke-width="1.51"/><path d="M884,1476L1715,1650L1463,1485Z" fill="#2e7469" stroke="#2e7469" stroke-width="1.51"/><path d="M315,1322L467,1513L513,1183Z" fill="#809379" stroke="#809379" stroke-width="1.51"/><path d="M505,-333L328,76L564,90Z" fill="#e3bf85" stroke="#e3bf85" stroke-width="1.51"/><path d="M-65,270L-18,681L130,669Z" fill="#dabe95" stroke="#dabe95" stroke-width="1.51"/><path d="M1892,1030L2041,909L1769,600Z" fill="#40867b" stroke="#40867b" stroke-width="1.51"/><path d="M2063,1339L2041,909L1892,1030Z" fill="#115f55" stroke="#115f55" stroke-width="1.51"/><path d="M-65,270L130,669L276,251Z" fill="#e8cca2" stroke="#e8cca2" stroke-width="1.51"/><path d="M130,669L-18,681L299,956Z" fill="#bfc299" stroke="#bfc299" stroke-width="1.51"/><path d="M1409,-46L1315,-288L1208,-40Z" fill="#a49e6f" stroke="#a49e6f" stroke-width="1.51"/><path d="M1446,-372L1315,-288L1409,-46Z" fill="#8c885e" stroke="#8c885e" stroke-width="1.51"/><path d="M746,-124L505,-333L564,90Z" fill="#dfb685" stroke="#dfb685" stroke-width="1.51"/><path d="M1315,-288L886,-327L1208,-40Z" fill="#ac9f75" stroke="#ac9f75" stroke-width="1.51"/><path d="M1807,252L1905,31L1409,-46Z" fill="#859772" stroke="#859772" stroke-width="1.51"/><path d="M2108,21L1905,31L1807,252Z" fill="#78845f" stroke="#78845f" stroke-width="1.51"/><path d="M1463,1485L1715,1650L1826,1184Z" fill="#07564c" stroke="#07564c" stroke-width="1.51"/><path d="M1826,1184L2063,1339L1892,1030Z" fill="#04594f" stroke="#04594f" stroke-width="1.51"/><path d="M116,1687L1715,1650L884,1476Z" fill="#6a9086" stroke="#6a9086" stroke-width="1.51"/><path d="M2063,1339L2183,609L2041,909Z" fill="#297166" stroke="#297166" stroke-width="1.51"/><path d="M2041,909L2183,609L1769,600Z" fill="#588a7f" stroke="#588a7f" stroke-width="1.51"/><path d="M1315,-288L1446,-372L886,-327Z" fill="#948d66" stroke="#948d66" stroke-width="1.51"/><path d="M1905,31L1446,-372L1409,-46Z" fill="#858256" stroke="#858256" stroke-width="1.51"/><path d="M315,1322L116,1687L467,1513Z" fill="#778260" stroke="#778260" stroke-width="1.51"/><path d="M-199,962L-45,1203L299,956Z" fill="#8f9267" stroke="#8f9267" stroke-width="1.51"/><path d="M1715,1650L2063,1339L1826,1184Z" fill="#00463b" stroke="#00463b" stroke-width="1.51"/><path d="M886,-327L505,-333L746,-124Z" fill="#cda681" stroke="#cda681" stroke-width="1.51"/><path d="M8,-96L-65,270L276,251Z" fill="#dcb774" stroke="#dcb774" stroke-width="1.51"/><path d="M1446,-372L505,-333L886,-327Z" fill="#b09876" stroke="#b09876" stroke-width="1.51"/><path d="M-18,681L-199,962L299,956Z" fill="#abab7e" stroke="#abab7e" stroke-width="1.51"/><path d="M8,-96L276,251L328,76Z" fill="#dfc17d" stroke="#dfc17d" stroke-width="1.51"/><path d="M-379,579L-199,962L-18,681Z" fill="#ad9e75" stroke="#ad9e75" stroke-width="1.51"/><path d="M1905,31L1943,-436L1446,-372Z" fill="#68613a" stroke="#68613a" stroke-width="1.51"/><path d="M2269,278L2108,21L1807,252Z" fill="#798768" stroke="#798768" stroke-width="1.51"/><path d="M2183,609L2269,278L1807,252Z" fill="#7b9283" stroke="#7b9283" stroke-width="1.51"/><path d="M2161,1546L2269,278L2183,609Z" fill="#458276" stroke="#458276" stroke-width="1.51"/><path d="M467,1513L116,1687L884,1476Z" fill="#7c8e77" stroke="#7c8e77" stroke-width="1.51"/><path d="M-150,1436L116,1687L315,1322Z" fill="#706e44" stroke="#706e44" stroke-width="1.51"/><path d="M-150,1436L315,1322L-45,1203Z" fill="#747147" stroke="#747147" stroke-width="1.51"/><path d="M157,-298L8,-96L328,76Z" fill="#cf9d51" stroke="#cf9d51" stroke-width="1.51"/><path d="M505,-333L157,-298L328,76Z" fill="#cda05f" stroke="#cda05f" stroke-width="1.51"/><path d="M2063,1339L2161,1546L2183,609Z" fill="#06564c" stroke="#06564c" stroke-width="1.51"/><path d="M1715,1650L2161,1546L2063,1339Z" fill="#003c30" stroke="#003c30" stroke-width="1.51"/><path d="M-346,1289L-150,1436L-45,1203Z" fill="#665d33" stroke="#665d33" stroke-width="1.51"/><path d="M-448,305L-379,579L-65,270Z" fill="#c69d76" stroke="#c69d76" stroke-width="1.51"/><path d="M-65,270L-379,579L-18,681Z" fill="#cfac85" stroke="#cfac85" stroke-width="1.51"/><path d="M-199,962L-346,1289L-45,1203Z" fill="#726e46" stroke="#726e46" stroke-width="1.51"/><path d="M-379,579L-419,913L-199,962Z" fill="#938c66" stroke="#938c66" stroke-width="1.51"/><path d="M1446,-372L-360,-419L505,-333Z" fill="#ba956a" stroke="#ba956a" stroke-width="1.51"/><path d="M2108,21L1943,-436L1905,31Z" fill="#695e31" stroke="#695e31" stroke-width="1.51"/><path d="M2127,-427L1943,-436L2108,21Z" fill="#574c24" stroke="#574c24" stroke-width="1.51"/><path d="M-419,913L-346,1289L-199,962Z" fill="#716f4b" stroke="#716f4b" stroke-width="1.51"/><path d="M-150,1436L-314,1496L116,1687Z" fill="#64582d" stroke="#64582d" stroke-width="1.51"/><path d="M-379,579L-448,305L-419,913Z" fill="#a89274" stroke="#a89274" stroke-width="1.51"/><path d="M-324,-133L-448,305L-65,270Z" fill="#be9153" stroke="#be9153" stroke-width="1.51"/><path d="M-324,-133L-65,270L8,-96Z" fill="#c28f44" stroke="#c28f44" stroke-width="1.51"/><path d="M-419,913L-314,1496L-346,1289Z" fill="#5a5634" stroke="#5a5634" stroke-width="1.51"/><path d="M-346,1289L-314,1496L-150,1436Z" fill="#564a24" stroke="#564a24" stroke-width="1.51"/><path d="M-360,-419L-96,-336L505,-333Z" fill="#a16b24" stroke="#a16b24" stroke-width="1.51"/><path d="M505,-333L-96,-336L157,-298Z" fill="#b38440" stroke="#b38440" stroke-width="1.51"/><path d="M157,-298L-96,-336L8,-96Z" fill="#b3792d" stroke="#b3792d" stroke-width="1.51"/><path d="M2269,278L2127,-427L2108,21Z" fill="#6f6b40" stroke="#6f6b40" stroke-width="1.51"/><path d="M-96,-336L-324,-133L8,-96Z" fill="#ac6e21" stroke="#ac6e21" stroke-width="1.51"/><path d="M-96,-336L-360,-419L-324,-133Z" fill="#91560e" stroke="#91560e" stroke-width="1.51"/><path d="M-324,-133L-360,-419L-448,305Z" fill="#9f6923" stroke="#9f6923" stroke-width="1.51"/><path d="M1943,-436L-360,-419L1446,-372Z" fill="#9e8f70" stroke="#9e8f70" stroke-width="1.51"/></svg>