<svg xmlns="http://www.w3.org/2000/svg" width="1440" height="900"><path d="M772,563L694,662L869,772Z" fill="#e2f1cd" stroke="#e2f1cd" stroke-width="1.51"/><path d="M869,772L974,529L772,563Z" fill="#e6f4cf" stroke="#e6f4cf" stroke-width="1.51"/><path d="M694,662L731,956L869,772Z" fill="#cee6b0" stroke="#cee6b0" stroke-width="1.51"/><path d="M505,585L574,773L694,662Z" fill="#e6eacf" stroke="#e6eacf" stroke-width="1.51"/><path d="M1085,745L1047,554L974,529Z" fill="#d9efba" stroke="#d9efba" stroke-width="1.51"/><path d="M869,772L1085,745L974,529Z" fill="#d4edb2" stroke="#d4edb2" stroke-width="1.51"/><path d="M574,773L731,956L694,662Z" fill="#d1e3b3" stroke="#d1e3b3" stroke-width="1.51"/><path d="M869,772L941,958L1085,745Z" fill="#bee093" stroke="#bee093" stroke-width="1.51"/><path d="M731,956L941,958L869,772Z" fill="#b9da92" stroke="#b9da92" stroke-width="1.51"/><path d="M772,563L505,585L694,662Z" fill="#eff3e2" stroke="#eff3e2" stroke-width="1.51"/><path d="M511,346L505,585L772,563Z" fill="#f7f0ee" stroke="#f7f0ee" stroke-width="1.51"/><path d="M936,368L787,346L772,563Z" fill="#f3f5ec" stroke="#f3f5ec" stroke-width="1.51"/><path d="M936,368L772,563L974,529Z" fill="#eef6e1" stroke="#eef6e1" stroke-width="1.51"/><path d="M1034,411L936,368L974,529Z" fill="#e9f3d9" stroke="#e9f3d9" stroke-width="1.51"/><path d="M1261,542L1034,411L1047,554Z" fill="#d7edba" stroke="#d7edba" stroke-width="1.51"/><path d="M1047,554L1034,411L974,529Z" fill="#e2f1cc" stroke="#e2f1cc" stroke-width="1.51"/><path d="M731,956L707,1100L941,958Z" fill="#a9ca8a" stroke="#a9ca8a" stroke-width="1.51"/><path d="M574,773L515,968L731,956Z" fill="#c0d49b" stroke="#c0d49b" stroke-width="1.51"/><path d="M352,680L515,968L574,773Z" fill="#d1d7ad" stroke="#d1d7ad" stroke-width="1.51"/><path d="M515,968L591,1037L731,956Z" fill="#b1c891" stroke="#b1c891" stroke-width="1.51"/><path d="M591,1037L707,1100L731,956Z" fill="#a9c58d" stroke="#a9c58d" stroke-width="1.51"/><path d="M787,346L511,346L772,563Z" fill="#f8f3f5" stroke="#f8f3f5" stroke-width="1.51"/><path d="M787,346L774,222L511,346Z" fill="#fbebf2" stroke="#fbebf2" stroke-width="1.51"/><path d="M881,169L774,222L787,346Z" fill="#f5e4e6" stroke="#f5e4e6" stroke-width="1.51"/><path d="M881,169L787,346L936,368Z" fill="#f4eae5" stroke="#f4eae5" stroke-width="1.51"/><path d="M505,585L352,680L574,773Z" fill="#e6e2ca" stroke="#e6e2ca" stroke-width="1.51"/><path d="M318,543L352,680L505,585Z" fill="#efded9" stroke="#efded9" stroke-width="1.51"/><path d="M941,958L1151,983L1085,745Z" fill="#a6d272" stroke="#a6d272" stroke-width="1.51"/><path d="M1085,745L1261,542L1047,554Z" fill="#cdeaa8" stroke="#cdeaa8" stroke-width="1.51"/><path d="M1132,1042L1151,983L941,958Z" fill="#93c465" stroke="#93c465" stroke-width="1.51"/><path d="M1334,780L1261,542L1085,745Z" fill="#b5dd86" stroke="#b5dd86" stroke-width="1.51"/><path d="M1141,186L881,169L936,368Z" fill="#eae0d1" stroke="#eae0d1" stroke-width="1.51"/><path d="M950,1150L1132,1042L941,958Z" fill="#92bf6b" stroke="#92bf6b" stroke-width="1.51"/><path d="M707,1100L950,1150L941,958Z" fill="#9bc07e" stroke="#9bc07e" stroke-width="1.51"/><path d="M511,346L318,543L505,585Z" fill="#f6e4ea" stroke="#f6e4ea" stroke-width="1.51"/><path d="M296,228L332,342L511,346Z" fill="#f9d3e8" stroke="#f9d3e8" stroke-width="1.51"/><path d="M1141,186L936,368L1034,411Z" fill="#e6e7cc" stroke="#e6e7cc" stroke-width="1.51"/><path d="M1132,1042L1224,979L1151,983Z" fill="#86bc53" stroke="#86bc53" stroke-width="1.51"/><path d="M1151,983L1224,979L1085,745Z" fill="#98cc60" stroke="#98cc60" stroke-width="1.51"/><path d="M1224,979L1334,780L1085,745Z" fill="#9dcf65" stroke="#9dcf65" stroke-width="1.51"/><path d="M591,1037L314,1082L707,1100Z" fill="#a5b788" stroke="#a5b788" stroke-width="1.51"/><path d="M515,968L314,1082L591,1037Z" fill="#acb989" stroke="#acb989" stroke-width="1.51"/><path d="M352,680L350,986L515,968Z" fill="#c3c799" stroke="#c3c799" stroke-width="1.51"/><path d="M168,719L350,986L352,680Z" fill="#cfc5a5" stroke="#cfc5a5" stroke-width="1.51"/><path d="M511,346L332,342L318,543Z" fill="#f8dceb" stroke="#f8dceb" stroke-width="1.51"/><path d="M492,137L511,346L774,222Z" fill="#fadcec" stroke="#fadcec" stroke-width="1.51"/><path d="M1350,398L1141,186L1034,411Z" fill="#d6e0b5" stroke="#d6e0b5" stroke-width="1.51"/><path d="M1261,542L1350,398L1034,411Z" fill="#cee5b1" stroke="#cee5b1" stroke-width="1.51"/><path d="M1404,529L1350,398L1261,542Z" fill="#bcda98" stroke="#bcda98" stroke-width="1.51"/><path d="M1334,780L1404,529L1261,542Z" fill="#b2d886" stroke="#b2d886" stroke-width="1.51"/><path d="M709,5L774,222L881,169Z" fill="#f2d2df" stroke="#f2d2df" stroke-width="1.51"/><path d="M709,5L492,137L774,222Z" fill="#f4cde3" stroke="#f4cde3" stroke-width="1.51"/><path d="M318,543L184,546L352,680Z" fill="#edd3d4" stroke="#edd3d4" stroke-width="1.51"/><path d="M150,420L184,546L318,543Z" fill="#efc9d8" stroke="#efc9d8" stroke-width="1.51"/><path d="M350,986L314,1082L515,968Z" fill="#acb388" stroke="#acb388" stroke-width="1.51"/><path d="M707,1100L169,1100L950,1150Z" fill="#9db487" stroke="#9db487" stroke-width="1.51"/><path d="M169,1100L314,1082L350,986Z" fill="#a3a27c" stroke="#a3a27c" stroke-width="1.51"/><path d="M184,546L168,719L352,680Z" fill="#e4c9c2" stroke="#e4c9c2" stroke-width="1.51"/><path d="M1334,780L1450,757L1404,529Z" fill="#9fcc6f" stroke="#9fcc6f" stroke-width="1.51"/><path d="M1483,850L1450,757L1334,780Z" fill="#89c053" stroke="#89c053" stroke-width="1.51"/><path d="M885,-29L709,5L881,169Z" fill="#ecc1d0" stroke="#ecc1d0" stroke-width="1.51"/><path d="M1350,398L1216,159L1141,186Z" fill="#ced1a7" stroke="#ced1a7" stroke-width="1.51"/><path d="M1224,979L1483,850L1334,780Z" fill="#84be48" stroke="#84be48" stroke-width="1.51"/><path d="M1132,1042L1323,1081L1224,979Z" fill="#78b346" stroke="#78b346" stroke-width="1.51"/><path d="M950,1150L1323,1081L1132,1042Z" fill="#7db252" stroke="#7db252" stroke-width="1.51"/><path d="M885,-29L881,169L1053,-28Z" fill="#e6bfc2" stroke="#e6bfc2" stroke-width="1.51"/><path d="M332,342L150,420L318,543Z" fill="#f4d0e3" stroke="#f4d0e3" stroke-width="1.51"/><path d="M492,137L296,228L511,346Z" fill="#f8cee6" stroke="#f8cee6" stroke-width="1.51"/><path d="M483,15L296,228L492,137Z" fill="#f3bddc" stroke="#f3bddc" stroke-width="1.51"/><path d="M1631,596L1465,412L1404,529Z" fill="#a6c888" stroke="#a6c888" stroke-width="1.51"/><path d="M1323,1081L1483,850L1224,979Z" fill="#72b139" stroke="#72b139" stroke-width="1.51"/><path d="M1350,398L1539,197L1216,159Z" fill="#bdc694" stroke="#bdc694" stroke-width="1.51"/><path d="M1404,529L1465,412L1350,398Z" fill="#b5d297" stroke="#b5d297" stroke-width="1.51"/><path d="M1631,596L1404,529L1450,757Z" fill="#9dc676" stroke="#9dc676" stroke-width="1.51"/><path d="M1053,-28L881,169L1141,186Z" fill="#e1c9be" stroke="#e1c9be" stroke-width="1.51"/><path d="M184,546L16,697L168,719Z" fill="#dfb8b4" stroke="#dfb8b4" stroke-width="1.51"/><path d="M296,228L150,420L332,342Z" fill="#f5c6e0" stroke="#f5c6e0" stroke-width="1.51"/><path d="M168,719L116,876L350,986Z" fill="#c1b38f" stroke="#c1b38f" stroke-width="1.51"/><path d="M16,697L116,876L168,719Z" fill="#cead98" stroke="#cead98" stroke-width="1.51"/><path d="M412,-76L483,15L588,-152Z" fill="#ea9ac1" stroke="#ea9ac1" stroke-width="1.51"/><path d="M709,5L483,15L492,137Z" fill="#f2b9d7" stroke="#f2b9d7" stroke-width="1.51"/><path d="M1216,159L1053,-28L1141,186Z" fill="#d5c3aa" stroke="#d5c3aa" stroke-width="1.51"/><path d="M1319,-38L1053,-28L1216,159Z" fill="#cab096" stroke="#cab096" stroke-width="1.51"/><path d="M314,1082L169,1100L707,1100Z" fill="#a0a881" stroke="#a0a881" stroke-width="1.51"/><path d="M116,876L169,1100L350,986Z" fill="#aca27d" stroke="#aca27d" stroke-width="1.51"/><path d="M116,876L15,1094L169,1100Z" fill="#a38e6e" stroke="#a38e6e" stroke-width="1.51"/><path d="M-13,551L16,697L184,546Z" fill="#e4b1ba" stroke="#e4b1ba" stroke-width="1.51"/><path d="M1684,769L1631,596L1450,757Z" fill="#85b75d" stroke="#85b75d" stroke-width="1.51"/><path d="M150,420L-13,551L184,546Z" fill="#ebb9cb" stroke="#ebb9cb" stroke-width="1.51"/><path d="M-6,396L-13,551L150,420Z" fill="#ebaeca" stroke="#ebaeca" stroke-width="1.51"/><path d="M95,229L150,420L296,228Z" fill="#f2b7d6" stroke="#f2b7d6" stroke-width="1.51"/><path d="M16,697L0,877L116,876Z" fill="#c39f87" stroke="#c39f87" stroke-width="1.51"/><path d="M-156,701L0,877L16,697Z" fill="#c99788" stroke="#c99788" stroke-width="1.51"/><path d="M199,26L95,229L296,228Z" fill="#eda7ce" stroke="#eda7ce" stroke-width="1.51"/><path d="M483,15L199,26L296,228Z" fill="#eeacd2" stroke="#eeacd2" stroke-width="1.51"/><path d="M588,-152L483,15L709,5Z" fill="#eca7c8" stroke="#eca7c8" stroke-width="1.51"/><path d="M588,-152L709,5L697,-217Z" fill="#e799bc" stroke="#e799bc" stroke-width="1.51"/><path d="M697,-217L709,5L885,-29Z" fill="#e8a6c0" stroke="#e8a6c0" stroke-width="1.51"/><path d="M95,229L-6,396L150,420Z" fill="#eeaccc" stroke="#eeaccc" stroke-width="1.51"/><path d="M1672,382L1539,197L1465,412Z" fill="#a6bb89" stroke="#a6bb89" stroke-width="1.51"/><path d="M1465,412L1539,197L1350,398Z" fill="#b3c691" stroke="#b3c691" stroke-width="1.51"/><path d="M1483,850L1684,769L1450,757Z" fill="#7bb44b" stroke="#7bb44b" stroke-width="1.51"/><path d="M1619,1050L1648,908L1483,850Z" fill="#5d9d2c" stroke="#5d9d2c" stroke-width="1.51"/><path d="M1053,-28L913,-213L885,-29Z" fill="#dfa3ac" stroke="#dfa3ac" stroke-width="1.51"/><path d="M1503,49L1319,-38L1216,159Z" fill="#b8a883" stroke="#b8a883" stroke-width="1.51"/><path d="M1323,1081L1619,1050L1483,850Z" fill="#5fa12d" stroke="#5fa12d" stroke-width="1.51"/><path d="M950,1150L1526,1175L1323,1081Z" fill="#659f3b" stroke="#659f3b" stroke-width="1.51"/><path d="M1648,908L1684,769L1483,850Z" fill="#6ca63e" stroke="#6ca63e" stroke-width="1.51"/><path d="M1631,596L1672,382L1465,412Z" fill="#a0bf89" stroke="#a0bf89" stroke-width="1.51"/><path d="M412,-76L199,26L483,15Z" fill="#e99ac5" stroke="#e99ac5" stroke-width="1.51"/><path d="M95,229L-75,129L-6,396Z" fill="#e895be" stroke="#e895be" stroke-width="1.51"/><path d="M1123,-190L913,-213L1053,-28Z" fill="#d39496" stroke="#d39496" stroke-width="1.51"/><path d="M1648,908L1619,1050L1684,769Z" fill="#5a992e" stroke="#5a992e" stroke-width="1.51"/><path d="M1526,1175L1619,1050L1323,1081Z" fill="#4d8f24" stroke="#4d8f24" stroke-width="1.51"/><path d="M913,-213L697,-217L885,-29Z" fill="#e096ae" stroke="#e096ae" stroke-width="1.51"/><path d="M279,-265L221,-156L412,-76Z" fill="#db72a7" stroke="#db72a7" stroke-width="1.51"/><path d="M412,-76L221,-156L199,26Z" fill="#e282b5" stroke="#e282b5" stroke-width="1.51"/><path d="M0,877L15,1094L116,876Z" fill="#ac8f70" stroke="#ac8f70" stroke-width="1.51"/><path d="M169,1100L-225,1103L950,1150Z" fill="#9b9a7b" stroke="#9b9a7b" stroke-width="1.51"/><path d="M1684,769L1672,382L1631,596Z" fill="#90b577" stroke="#90b577" stroke-width="1.51"/><path d="M1319,-38L1123,-190L1053,-28Z" fill="#c89a88" stroke="#c89a88" stroke-width="1.51"/><path d="M1319,-38L1265,-241L1123,-190Z" fill="#b98673" stroke="#b98673" stroke-width="1.51"/><path d="M1539,197L1503,49L1216,159Z" fill="#b3b087" stroke="#b3b087" stroke-width="1.51"/><path d="M1710,28L1503,49L1539,197Z" fill="#9e9776" stroke="#9e9776" stroke-width="1.51"/><path d="M0,877L-216,896L15,1094Z" fill="#a67e62" stroke="#a67e62" stroke-width="1.51"/><path d="M-13,551L-156,701L16,697Z" fill="#d89ca0" stroke="#d89ca0" stroke-width="1.51"/><path d="M-263,499L-156,701L-13,551Z" fill="#d893a3" stroke="#d893a3" stroke-width="1.51"/><path d="M1672,382L1699,193L1539,197Z" fill="#9ea982" stroke="#9ea982" stroke-width="1.51"/><path d="M1684,769L1699,193L1672,382Z" fill="#96b386" stroke="#96b386" stroke-width="1.51"/><path d="M279,-265L412,-76L588,-152Z" fill="#df7fad" stroke="#df7fad" stroke-width="1.51"/><path d="M199,26L-75,129L95,229Z" fill="#e58ebd" stroke="#e58ebd" stroke-width="1.51"/><path d="M-6,396L-204,365L-13,551Z" fill="#e79abb" stroke="#e79abb" stroke-width="1.51"/><path d="M1534,-260L1265,-241L1319,-38Z" fill="#a5795e" stroke="#a5795e" stroke-width="1.51"/><path d="M1123,-190L1265,-241L913,-213Z" fill="#bf8a7f" stroke="#bf8a7f" stroke-width="1.51"/><path d="M913,-213L1265,-241L697,-217Z" fill="#cb8e95" stroke="#cb8e95" stroke-width="1.51"/><path d="M1534,-260L1319,-38L1503,49Z" fill="#a58366" stroke="#a58366" stroke-width="1.51"/><path d="M16,-87L-75,129L199,26Z" fill="#dd72aa" stroke="#dd72aa" stroke-width="1.51"/><path d="M-156,701L-216,896L0,877Z" fill="#b88672" stroke="#b88672" stroke-width="1.51"/><path d="M-263,499L-216,896L-156,701Z" fill="#c08a83" stroke="#c08a83" stroke-width="1.51"/><path d="M-179,212L-204,365L-6,396Z" fill="#e28ab2" stroke="#e28ab2" stroke-width="1.51"/><path d="M221,-156L16,-87L199,26Z" fill="#db6ca6" stroke="#db6ca6" stroke-width="1.51"/><path d="M697,-217L279,-265L588,-152Z" fill="#da85ab" stroke="#da85ab" stroke-width="1.51"/><path d="M1265,-241L279,-265L697,-217Z" fill="#d28ea7" stroke="#d28ea7" stroke-width="1.51"/><path d="M-204,365L-263,499L-13,551Z" fill="#dc92af" stroke="#dc92af" stroke-width="1.51"/><path d="M-204,365L-273,32L-263,499Z" fill="#d180a4" stroke="#d180a4" stroke-width="1.51"/><path d="M-75,129L-179,212L-6,396Z" fill="#e485b3" stroke="#e485b3" stroke-width="1.51"/><path d="M-273,32L-179,212L-75,129Z" fill="#d2699f" stroke="#d2699f" stroke-width="1.51"/><path d="M-19,-227L16,-87L221,-156Z" fill="#cf4b91" stroke="#cf4b91" stroke-width="1.51"/><path d="M1684,769L1710,28L1699,193Z" fill="#98aa83" stroke="#98aa83" stroke-width="1.51"/><path d="M1699,193L1710,28L1539,197Z" fill="#99987a" stroke="#99987a" stroke-width="1.51"/><path d="M-216,896L-225,1103L15,1094Z" fill="#946c53" stroke="#946c53" stroke-width="1.51"/><path d="M15,1094L-225,1103L169,1100Z" fill="#93715c" stroke="#93715c" stroke-width="1.51"/><path d="M950,1150L-225,1103L1526,1175Z" fill="#96b584" stroke="#96b584" stroke-width="1.51"/><path d="M-263,499L-225,1103L-216,896Z" fill="#a87d64" stroke="#a87d64" stroke-width="1.51"/><path d="M1667,-192L1534,-260L1503,49Z" fill="#946c57" stroke="#946c57" stroke-width="1.51"/><path d="M1265,-241L1534,-260L279,-265Z" fill="#bf8985" stroke="#bf8985" stroke-width="1.51"/><path d="M1710,28L1667,-192L1503,49Z" fill="#947963" stroke="#947963" stroke-width="1.51"/><path d="M279,-265L-19,-227L221,-156Z" fill="#c95690" stroke="#c95690" stroke-width="1.51"/><path d="M16,-87L-273,32L-75,129Z" fill="#d35697" stroke="#d35697" stroke-width="1.51"/><path d="M-195,-192L-273,32L16,-87Z" fill="#c53582" stroke="#c53582" stroke-width="1.51"/><path d="M-179,212L-273,32L-204,365Z" fill="#d175a1" stroke="#d175a1" stroke-width="1.51"/><path d="M-19,-227L-195,-192L16,-87Z" fill="#c4277e" stroke="#c4277e" stroke-width="1.51"/></svg>